# xmcd
#
# Track frame offsets:
#	150
#	20272
#	35444
#	51811
#	69543
#	87446
#	105860
#	127346
#	146103
#	168784
#	188393
#	206979
#
# Disc length: 2993 seconds
#
# Revision: 0
# Processed by: cddbd v1.5.1PL0 Copyright (c) Steve Scherf et al.
# Submitted via: EasyCDDAExtractor 8.0.2.1
#
DISCID=a30baf0c
DTITLE=Mase - Welcome Back
DYEAR=2004
DGENRE=Rap
TTITLE0=Welcome Back
TTITLE1=Keep Dreamin
TTITLE2=We Don't Have To
TTITLE3=I Love Twyla
TTITLE4=My Harlem Lullaby
TTITLE5=Wasting My Time
TTITLE6=Gotta Survive
TTITLE7=The Love U Need
TTITLE8=I Still Love You
TTITLE9=Do U Remember
TTITLE10=Into What U Say
TTITLE11=I Owe
EXTD=
EXTT0=
EXTT1=
EXTT2=
EXTT3=
EXTT4=
EXTT5=
EXTT6=
EXTT7=
EXTT8=
EXTT9=
EXTT10=
EXTT11=
PLAYORDER=
